<svg height="58" viewBox="0 0 64 58" width="64" xmlns="http://www.w3.org/2000/svg"><path d="m61.622225 65.1034331c-.7420655 0-1.5282094-.000483-2.3138689 0-.8815662.000483-1.7108196-.220728-2.4853385-.6230615-1.2671302-.65832-1.7834761-1.7948034-1.992727-3.2375047.2770637-.0231837.524096-.0603741.7706439-.0613401 2.1356182-.0077279 4.270752-.0072449 6.4058859-.0120749.7125185-.000966.7076748-.0062789.9183788-.6969594 1.4807405-4.8482877 4.3346898-8.7416974 8.3051281-11.8550728 1.5698659-1.2306672 3.2593729-2.2724839 5.0457553-3.1611918.1443444-.071483.2843293-.1521429.4262518-.2284559-.0092032-.0521632-.017922-.1043265-.0271251-.1564898-2.1976185-.0246327-4.395237-.0642381-6.5928555-.070517-2.1888997-.005796-4.3492211.2332858-6.4572298.8495853-2.7304332.7988711-4.8868797 2.3594227-6.4359173 4.756036-1.0772545 1.6658442-1.7500542 3.4930082-2.3080565 5.3781314-.188907.6365853-.433033 1.2722046-.7590187 1.8479327-.5957838 1.0538916-1.5156157 1.1316535-2.3439004.2545375-.8495973-.9002997-1.271974-2.0174634-1.5538814-3.1877564-.4742051-1.969647-.4378768-3.9296342.2271728-5.8606418.0460158-.1352381.0741097-.2772382.1012348-.4177893.00775-.0410544-.0164688-.0888708-.0494065-.2434286-.9227382-.0313946-1.874539-.0627892-2.8258554-.0961157-.317267-.0106259-.354564.2216939-.4538613.4520818-.5265178 1.2282522-.9798947 2.5023887-1.6415537 3.655777-2.0033833 3.4925252-4.599644 6.4759754-8.0266113 8.6620035-2.0338991 1.2982862-4.2421739 2.114062-6.7037778 2.0329191-1.6720694-.0545782-3.1973726-.5873199-4.5565345-1.5547557-.5638149-.4013675-1.0937233-.8563473-1.6066785-1.3229189-.417533-.3796328-.6790966-.8664901-.6884783-1.4499461-.0114465-.7211092.5460714-1.2297012 1.2610119-1.1277896.2790011.0400884.5841586.1115715.8123002.2651634 1.331068.8978847 2.7231675.728354 4.1336734.2767552 1.9801332-.6351363 3.5325615-1.8590416 4.8147074-3.4707905 1.3625526-1.7141436 2.2160248-3.6750968 2.8854339-5.7316826.0649065-.2004423.096391-.4119934.1598444-.6897146-.5163459 0-.9915197.0106259-1.4657248-.001932-.9842541-.0265646-1.9559144-.14683-2.8970589-.4520818-1.4981781-.4854083-2.1617746-1.6489394-2.4921197-3.0747359-.0649065-.2806192.0358439-.4709186.358439-.4776805.1918133-.0038639.3836266-.0062789.5754399-.0067619 2.0876649-.0024149 4.1748454-.0028979 6.2620259-.0086939.6635965-.0019319.6679559-.0067619.8413629-.6148506 1.1591141-4.0614914 3.3954828-7.449207 6.444636-10.3452354 2.1399777-2.0329192 4.5904409-3.5992668 7.208983-4.9279816.0600628-.0304286.1152818-.070517.3284076-.2028572-2.7168706-.0338095-5.2734124-.1555239-7.823173-.0685851-2.0503679.0700341-4.1026732.3221566-6.0634314 1.025395-2.9111058 1.0447147-5.0433334 2.9564026-6.4766049 5.6824173-.7619251 1.4489801-1.2729428 2.9848991-1.7568354 4.5382059-.1835789.5878029-.4272206 1.1712589-.7367375 1.7030347-.5352366.9196194-1.3359117 1.0577555-2.063446.290762-.5323303-.5612383-1.0331762-1.2311502-1.3039429-1.9450144-1.2109425-3.1872734-1.0259105-6.3436352.6258151-9.3304663 1.7113039-3.0945387 4.3080491-5.1264919 7.8420637-5.7278187 1.4037246-.2390817 2.8660588-.1762926 4.3017522-.1816055 1.918133-.0067619 3.8362659.0627891 5.7548832.0830749 1.5320845.0164217 3.0646534.0236666 4.5967378.0062789 2.7333395-.0309116 5.4666789-.077762 8.1990496-.1313742.5982056-.0115919 1.1983487-.1386191 1.7912262-.1038436.4635488.0270476.9639102.1371701 1.3649744.3588641 1.1106765.6129186 1.1281141 1.9995926.0663597 2.6989671-.2572042.1690477-.5439554.3134627-.8379723.4023335-2.3211346.7008234-4.1830798 2.0845994-5.793149 3.8446274-1.878414 2.0527219-3.239029 4.4304983-4.3894244 6.94303-.8282847 1.8088102-1.4860687 3.6775116-2.0634461 5.5771247-.0271251.0883877-.0402032.1816055-.0750784.3434083.2015008.0342925.3753922.0879048.5497679.0888707 1.2957085.00483 2.591417-.0101428 3.8866411.003864.366189.0038639.6238776-.1328232.890285-.3704559 1.8047887-1.611266 3.9282975-2.5284704 6.3279012-2.8081236.4030016-.0468504.8152065-.0236667 1.2230519-.0241497 6.2852761-.0033809 12.5710365.001449 18.8563125-.0144898 1.2220832-.0033809 2.443682-.1265443 3.6647964-.1115715.4800177.005313 1.0031448.1531089 1.4269747.3830138.9149882.4955512 1.0472231 1.6474905.2969231 2.3637697-.2848137.2714422-.6461589.5182519-1.0171917.6351363-3.0646533.9655038-5.3320221 2.9684774-7.1891235 5.4839069-2.4020256 3.2534435-3.969954 6.9097035-5.0898336 10.7712357-.0455315.1550408-.0547346.3207076-.0944535.5665512.2974074.0135238.5502522.0352585.8040658.0347755 2.4233382 0 4.8461919-.0038639 7.2695301-.0062789.1918133 0 .3845954-.0082109.5754399.0067619.4306112.0342926.4761426.1072246.3734547.5501295-.4504706 1.9353545-1.7142103 3.0269196-3.8120471 3.3838517-1.5267563.2593675-3.0544814.1333062-4.5831752.1275103-.3836266-.001449-.7711282.0159387-1.149911-.0294626-.4165643-.0502313-.5962681.1197823-.7188155.5003811-.5245803 1.6247898-1.2966773 3.1370421-2.203431 4.5787774-1.7248665 2.7419535-3.8435316 5.1318048-6.4829019 7.0323838-1.626538 1.1717419-3.3940297 2.0768715-5.3785223 2.4748581-3.3925765.6810207-6.2319945-.3588641-8.5788011-2.8346882-.2087665-.220245-.3574703-.509558-.488252-.7877622-.2111884-.4487009-.173407-.9046467.1714694-1.2697897.3143607-.3332654.7357687-.4400069 1.1867237-.3197416.2528448.0676191.5260334.1294422.7352843.2738573 1.0414105.7196601 2.1922903.6317553 3.3252481.4173062 1.933633-.3665919 3.481702-1.4480141 4.8079262-2.8419331 1.8561327-1.9522593 2.9856999-4.306369 3.6759371-6.8850708.0242189-.0898367.0280939-.1854694.0368127-.2782042.0019375-.0212517-.0164689-.0444354-.0668441-.1661497" fill="none" stroke="#e0e0e0" transform="translate(-23 -23)"/></svg>